<svg width="472" height="468" viewBox="0 0 472 468" fill="none" xmlns="http://www.w3.org/2000/svg">
<g clip-path="url(#clip0)">
<path d="M212.743 285.338H202.49H190.196H179.941H116.756H106.503H94.2073H83.9533C80.7369 285.338 78.1289 287.925 78.1289 291.115V369.089C78.1289 372.278 80.736 374.864 83.9533 374.864H94.2083H106.502H116.755H179.94H190.195H202.489H212.742C215.961 374.864 218.568 372.279 218.568 369.089V291.115C218.569 287.926 215.961 285.338 212.743 285.338Z" fill="#F28838"/>
<path d="M257.205 104.168H267.46H279.754H290.007H353.192H363.447H375.743H385.996C389.215 104.168 391.822 106.755 391.822 109.945V187.919C391.822 191.109 389.215 193.694 385.996 193.694H375.743H363.447H353.192H290.007H279.754H267.46H257.205C253.989 193.694 251.381 191.109 251.381 187.919V109.945C251.382 106.756 253.989 104.168 257.205 104.168Z" fill="#4BAF78"/>
<path d="M391.821 261.611C391.821 255.969 387.208 251.394 381.516 251.394H228.874C223.184 251.394 218.569 255.969 218.569 261.611V364.645C218.569 370.29 223.184 374.863 228.874 374.863H381.517C387.209 374.863 391.822 370.29 391.822 364.645V261.611H391.821Z" fill="#FFB92E"/>
<path d="M78.1289 80.4402C78.1289 74.7977 82.742 70.2228 88.4336 70.2228H241.074C246.766 70.2228 251.381 74.7977 251.381 80.4402V183.475C251.381 189.12 246.767 193.693 241.074 193.693H88.4345C82.7429 193.693 78.1298 189.12 78.1298 183.475V80.4402H78.1289Z" fill="#FFB92E"/>
<path d="M98.6508 369.088V291.114C98.6508 287.925 101.258 285.337 104.475 285.337H94.2083H83.9533C80.7369 285.337 78.1289 287.924 78.1289 291.114V369.088C78.1289 372.278 80.736 374.863 83.9533 374.863H94.2083H104.475C101.259 374.863 98.6508 372.278 98.6508 369.088Z" fill="#EF711D"/>
<path d="M271.902 187.918V109.944C271.902 106.755 274.51 104.167 277.727 104.167H267.46H257.205C253.989 104.167 251.381 106.754 251.381 109.944V187.918C251.381 191.108 253.988 193.694 257.205 193.694H267.46H277.727C274.51 193.693 271.902 191.108 271.902 187.918Z" fill="#299956"/>
<path d="M239.09 364.645V261.611C239.09 255.969 243.705 251.394 249.395 251.394H228.874C223.184 251.394 218.569 255.969 218.569 261.611V364.645C218.569 370.29 223.184 374.863 228.874 374.863H249.396C243.706 374.863 239.09 370.29 239.09 364.645Z" fill="#EF9A1D"/>
<path d="M98.6508 183.475V80.4402C98.6508 74.7977 103.264 70.2228 108.956 70.2228H88.4346C82.7429 70.2228 78.1299 74.7977 78.1299 80.4402V183.475C78.1299 189.12 82.7429 193.693 88.4346 193.693H108.956C103.265 193.693 98.6508 189.12 98.6508 183.475Z" fill="#EF9A1D"/>
<path d="M321.368 350.837H289.024C285.623 350.837 282.868 353.571 282.868 356.941V374.863H327.525V356.941C327.524 353.57 324.767 350.837 321.368 350.837Z" fill="#7C7A75"/>
<path d="M282.867 251.394V294.135C282.867 296.475 284.216 298.609 286.341 299.629C288.465 300.649 290.99 300.375 292.842 298.924L305.194 289.241L317.55 298.925C318.658 299.792 320.008 300.24 321.368 300.24C322.282 300.24 323.198 300.04 324.051 299.63C326.175 298.61 327.526 296.474 327.526 294.136V251.394H282.867Z" fill="#7C7A75"/>
<path d="M142.426 70.2238V112.965C142.426 115.305 143.775 117.439 145.9 118.459C146.752 118.869 147.67 119.069 148.58 119.069C149.941 119.069 151.292 118.622 152.4 117.754L164.756 108.071L177.109 117.753C178.959 119.204 181.484 119.479 183.609 118.458C185.733 117.439 187.084 115.304 187.084 112.964V70.2238H142.426Z" fill="#7C7A75"/>
<path d="M180.925 169.666H148.582C145.182 169.666 142.426 172.4 142.426 175.771V193.693H187.083V175.771C187.083 172.399 184.326 169.666 180.925 169.666Z" fill="#7C7A75"/>
<path d="M74.824 221.311L27.8545 267.882V221.311H74.824Z" fill="#7C7A75"/>
<path d="M397.178 221.311L444.145 267.882V221.311H397.178Z" fill="#7C7A75"/>
<path d="M74.824 40.1411L27.8545 86.7125V40.1411H74.824Z" fill="#7C7A75"/>
<path d="M397.178 40.1411L444.145 86.7125V40.1411H397.178Z" fill="#7C7A75"/>
<path d="M74.824 402.482L27.8545 449.053V402.482H74.824Z" fill="#7C7A75"/>
<path d="M49.4042 221.311H27.8545V267.882L49.4042 246.516V221.311Z" fill="#6B6861"/>
<path d="M49.4042 40.1411H27.8545V86.7125L49.4042 65.3463V40.1411Z" fill="#6B6861"/>
<path d="M49.4042 402.482H27.8545V449.053L49.4042 427.687V402.482Z" fill="#6B6861"/>
<path d="M397.178 402.482L444.145 449.053V402.482H397.178Z" fill="#7C7A75"/>
<path d="M172.908 352.424H128.786C124.535 352.424 121.09 349.009 121.09 344.794C121.09 340.579 124.534 337.163 128.786 337.163H172.908C177.158 337.163 180.604 340.578 180.604 344.794C180.604 349.009 177.157 352.424 172.908 352.424Z" fill="#FCA468"/>
<path d="M341.164 171.254H297.042C292.791 171.254 289.346 167.837 289.346 163.624C289.346 159.41 292.79 155.993 297.042 155.993H341.164C345.414 155.993 348.86 159.41 348.86 163.624C348.86 167.837 345.414 171.254 341.164 171.254Z" fill="#61C98D"/>
<path d="M82.1271 193.693H16.9524V222.328H82.1271H348.79H377.529H392.381H457.56V193.693H392.381H82.1271Z" fill="#CCC3A8"/>
<path d="M82.1271 374.863H16.9524V403.499H82.1271H392.381H457.56V374.863H392.381H82.1271Z" fill="#CCC3A8"/>
<path d="M392.381 12.5227H82.1271H16.9524V41.1584H82.1271H348.79H377.529H392.381H457.56V12.5227H392.381Z" fill="#CCC3A8"/>
<path d="M21.7517 193.693H16.9524V222.328H21.7517H41.3922H43.5079H44.6031H49.4033V193.693H44.6031H21.7517Z" fill="#C9B585"/>
<path d="M21.7517 374.863H16.9524V403.499H21.7517H44.6031H49.4033V374.863H44.6031H21.7517Z" fill="#C9B585"/>
<path d="M44.6031 12.5227H21.7517H16.9524V41.1584H21.7517H41.3922H43.5079H44.6031H49.4033V12.5227H44.6031Z" fill="#C9B585"/>
<path d="M472 82.7483V12.7521C472 5.70832 466.243 0 459.14 0H455.98C448.878 0 443.12 5.70832 443.12 12.7512V89.3935V378.607V455.25C443.12 462.292 448.877 468.001 455.98 468.001H459.14C466.242 468.001 472 462.293 472 455.25V378.607V108.861" fill="#2766B3"/>
<path d="M0 12.7512V89.3935V378.607V455.25C0 462.292 5.75711 468 12.8602 468H16.0203C23.1225 468 28.8805 462.292 28.8805 455.249V378.607V89.3935V12.7512C28.8805 5.70832 23.1225 0 16.0203 0H12.8602C5.75711 0 0 5.70832 0 12.7512Z" fill="#2766B3"/>
<path d="M212.743 285.338H202.49H190.196H179.941H116.756H106.503H94.2073H83.9533C80.7369 285.338 78.1289 287.925 78.1289 291.115V316.822H218.568V291.115C218.569 287.926 215.961 285.338 212.743 285.338Z" fill="#EA6428"/>
<path d="M98.6508 291.115C98.6508 287.926 101.258 285.338 104.475 285.338H94.2083H83.9533C80.7369 285.338 78.1289 287.925 78.1289 291.115V316.822H98.6508V291.115Z" fill="#DD4D14"/>
<path d="M257.205 104.168H267.46H279.754H290.007H353.191H363.446H375.742H385.995C389.215 104.168 391.822 106.755 391.822 109.945V135.652H251.381V109.945C251.381 106.756 253.988 104.168 257.205 104.168Z" fill="#1E834E"/>
<path d="M271.902 109.944C271.902 106.755 274.51 104.167 277.727 104.167H267.46H257.205C253.989 104.167 251.381 106.754 251.381 109.944V135.651H271.902V109.944Z" fill="#147540"/>
<path d="M164.753 169.666H148.581C145.181 169.666 142.425 172.4 142.425 175.771V193.693H164.753V169.666Z" fill="#605E5A"/>
<path d="M164.753 70.2238H142.425V112.965C142.425 115.305 143.774 117.439 145.899 118.459C146.751 118.869 147.669 119.069 148.579 119.069C149.94 119.069 151.291 118.622 152.399 117.754L164.753 108.072V70.2238Z" fill="#605E5A"/>
<path d="M305.195 350.837H289.022C285.621 350.837 282.866 353.571 282.866 356.941V374.863H305.195V350.837Z" fill="#605E5A"/>
<path d="M305.195 251.394H282.866V294.135C282.866 296.475 284.215 298.609 286.34 299.629C288.464 300.649 290.989 300.375 292.841 298.924L305.193 289.241L305.195 289.243V251.394Z" fill="#605E5A"/>
</g>
<defs>
<clipPath id="clip0">
<rect width="472" height="468" fill="white"/>
</clipPath>
</defs>
</svg>
